#!OML:ASF F:\VICON\USERDATA\INSTALL\rory3\rory3.ASF
:FULLY-SPECIFIED
:DEGREES
233
root 0.112421 17.4729 2.83917 -5.19836 -0.646248 0.146538
lowerback 4.85421 0.233234 -1.83761
upperback -0.486415 0.260341 1.80938
thorax -3.24173 0.178346 2.8802
lowerneck -17.5308 -4.37602 -9.849
upperneck 23.8433 -5.48149 8.0449
head 11.1246 -2.42878 3.78086
rclavicle -4.96962e-017 -7.55382e-015
rhumerus -43.4653 -13.6666 -74.6777
rradius 29.9875
rwrist 4.04749
rhand -13.1851 16.269
rfingers 7.12502
rthumb 12.9148 -13.3113
lclavicle -4.96962e-017 -7.55382e-015
lhumerus -40.4652 8.79563 86.3443
lradius 39.5848
lwrist 2.68393
lhand -20.8892 25.7994
lfingers 7.12502
lthumb 5.48128 55.7085
rfemur -7.64937 2.80181 23.3028
rtibia 30.774
rfoot -12.5862 -3.75166
rtoes 3.21239
lfemur -8.54665 -3.54326 -21.9322
ltibia 30.1662
lfoot -12.4437 1.77528
ltoes 2.00756
234
root 0.114336 17.4978 2.86571 -4.92518 -0.673711 0.55029
lowerback 4.7272 0.159716 -2.1204
upperback -0.605803 0.144566 1.71291
thorax -3.28692 0.126924 2.94874
lowerneck -17.5981 -4.39595 -9.8574
upperneck 23.6149 -5.48118 8.02243
head 11.0522 -2.4299 3.76788
rclavicle 6.41081e-015 2.66371e-014
rhumerus -43.3699 -12.8571 -74.9737
rradius 30.3905
rwrist 4.51115
rhand -13.0121 15.5682
rfingers 7.12502
rthumb 13.0815 -14.0015
lclavicle 6.41081e-015 2.66371e-014
lhumerus -40.4743 8.07741 86.3064
lradius 39.6439
lwrist 1.82861
lhand -20.6477 26.1197
lfingers 7.12502
lthumb 5.71448 56.0227
rfemur -7.4645 2.75026 22.7956
rtibia 30.1032
rfoot -12.3995 -3.49605
rtoes 3.15761
lfemur -8.26407 -3.44134 -22.3391
ltibia 29.3285
lfoot -12.3238 1.63347
ltoes 2.48248
235
root 0.111667 17.5202 2.89543 -4.76937 -0.774887 0.651362
lowerback 4.72489 0.116559 -2.07865
upperback -0.686373 0.0883661 1.67309
thorax -3.36492 0.0998422 2.88843
lowerneck -17.7069 -4.46515 -9.85644
upperneck 23.5198 -5.53611 7.91998
head 11.0409 -2.46448 3.71776
rclavicle 2.48481e-016 4.37326e-015
rhumerus -43.022 -12.3014 -75.1594
rradius 30.2928
rwrist 5.19255
rhand -12.7267 14.5618
rfingers 7.12502
rthumb 13.3566 -14.9901
lclavicle 2.48481e-016 4.37326e-015
lhumerus -40.64 7.24417 86.2592
lradius 39.9138
lwrist 0.717849
lhand -21.04 24.5867
lfingers 7.12502
lthumb 5.33575 54.4995
rfemur -7.15155 2.79184 22.6729
rtibia 29.4665
rfoot -12.2937 -3.28495
rtoes 3.09853
lfemur -7.87081 -3.2881 -22.3915
ltibia 28.5648
lfoot -12.1848 1.49086
ltoes 2.53524
236
root 0.108357 17.54 2.92556 -4.6615 -1.11252 0.415348
lowerback 4.72612 0.105859 -1.77123
upperback -0.70915 0.0956228 1.77305
thorax -3.38904 0.099101 2.81811
lowerneck -17.8238 -4.42604 -9.7699
upperneck 23.405 -5.46914 7.85018
head 11.0089 -2.43165 3.68396
rclavicle 8.49804e-015 6.36111e-015
rhumerus -42.5706 -11.5585 -75.4201
rradius 30.2633
rwrist 5.50345
rhand -12.5814 14.3787
rfingers 7.12502
rthumb 13.4967 -15.1639
lclavicle 8.49804e-015 6.36111e-015
lhumerus -40.735 6.62089 86.1101
lradius 40.323
lwrist -0.0984022
lhand -20.8558 24.5888
lfingers 7.12502
lthumb 5.51358 54.4971
rfemur -6.85321 3.10334 22.9788
rtibia 28.9239
rfoot -12.2156 -3.20899
rtoes 2.75512
lfemur -7.46075 -2.99972 -22.0508
ltibia 27.8656
lfoot -11.9607 1.41943
ltoes 2.58937
237
root 0.106205 17.5571 2.95053 -4.4895 -1.5576 0.314579
lowerback 4.6396 0.125357 -1.63532
upperback -0.660777 0.133898 1.8898
thorax -3.29264 0.114944 2.85907
lowerneck -18.1221 -4.31995 -9.6936
upperneck 23.3068 -5.2926 7.8024
head 11.0079 -2.34323 3.67634
rclavicle 1.24737e-014 9.14409e-015
rhumerus -42.0272 -10.7707 -75.6875
rradius 30.4656
rwrist 5.4908
rhand -12.7286 14.454
rfingers 7.12502
rthumb 13.3548 -15.0981
lclavicle 1.24737e-014 9.14409e-015
lhumerus -40.5504 6.26601 85.9473
lradius 40.5996
lwrist -0.609445
lhand -20.4324 24.2102
lfingers 7.12502
lthumb 5.92235 54.1074
rfemur -6.7384 3.53775 23.1388
rtibia 28.4551
rfoot -12.026 -3.11983
rtoes 2.60661
lfemur -7.21883 -2.59504 -21.8592
ltibia 27.2741
lfoot -11.8438 1.41412
ltoes 2.67765
238
root 0.107179 17.568 2.97323 -4.30794 -1.82281 0.629439
lowerback 4.58134 0.145092 -1.86656
upperback -0.632153 0.14605 1.85011
thorax -3.2317 0.123783 2.94728
lowerneck -18.4548 -4.26223 -9.60914
upperneck 23.2005 -5.17901 7.73583
head 11.0166 -2.28428 3.65035
rclavicle -5.39203e-015 -3.97569e-015
rhumerus -41.565 -10.317 -75.8302
rradius 30.7966
rwrist 5.5563
rhand -12.7233 14.2466
rfingers 7.12502
rthumb 13.3599 -15.3051
lclavicle -5.39203e-015 -3.97569e-015
lhumerus -40.3888 5.91802 85.7546
lradius 40.8336
lwrist -1.02474
lhand -20.2294 23.4404
lfingers 7.12502
lthumb 6.1183 53.332
rfemur -6.69698 3.74132 22.7923
rtibia 28.0603
rfoot -11.8629 -2.99582
rtoes 2.21439
lfemur -7.02523 -2.36276 -22.1942
ltibia 26.797
lfoot -11.8943 1.52861
ltoes 2.50488
239
root 0.110084 17.5756 2.99313 -4.16253 -1.88534 0.957161
lowerback 4.73581 0.101766 -2.08028
upperback -0.810903 0.0719161 1.76879
thorax -3.49916 0.0960592 2.99047
lowerneck -18.2761 -4.2633 -9.63305
upperneck 23.0131 -5.16754 7.68906
head 10.9108 -2.28998 3.63572
rclavicle -3.77691e-015 -5.56597e-015
rhumerus -41.5832 -9.75309 -75.9569
rradius 31.3403
rwrist 5.63184
rhand -13.0139 14.8534
rfingers 7.12502
rthumb 13.0798 -14.7165
lclavicle -3.77691e-015 -5.56597e-015
lhumerus -40.6746 5.50533 85.5087
lradius 41.279
lwrist -1.14116
lhand -20.0811 24.4525
lfingers 7.12502
lthumb 6.26153 54.3399
rfemur -6.6592 3.77116 22.4059
rtibia 27.7825
rfoot -11.7903 -2.85401
rtoes 2.24414
lfemur -6.81057 -2.3272 -22.5888
ltibia 26.376
lfoot -11.8934 1.67581
ltoes 1.25755
240
root 0.107624 17.5848 3.00898 -3.96167 -2.04631 0.909518
lowerback 4.95742 0.0642175 -2.01873
upperback -1.0815 0.0260979 1.83633
thorax -3.90166 0.0818242 3.03197
lowerneck -17.9354 -4.24317 -9.56531
upperneck 22.8926 -5.1273 7.46917
head 10.7883 -2.29879 3.54883
rclavicle 6.31141e-015 -7.95139e-016
rhumerus -41.6222 -9.15116 -76.0256
rradius 31.715
rwrist 5.76144
rhand -13.5658 15.7696
rfingers 7.12502
rthumb 12.5478 -13.8336
lclavicle 6.31141e-015 -7.95139e-016
lhumerus -41.2461 5.08863 85.2843
lradius 41.9343
lwrist -1.1343
lhand -19.8068 25.9698
lfingers 7.12502
lthumb 6.52635 55.8492
rfemur -6.75529 4.07599 22.4898
rtibia 27.6368
rfoot -11.7031 -2.87935
rtoes 2.81813
lfemur -6.72146 -2.32588 -22.5272
ltibia 25.9487
lfoot -11.7274 1.82278
ltoes 0.642216
241
root 0.103032 17.5939 3.02418 -3.74478 -2.32127 0.889449
lowerback 5.03447 0.0782403 -2.04876
upperback -1.20516 0.047013 1.95417
thorax -4.07551 0.0985204 3.17095
lowerneck -17.9987 -4.20607 -9.42831
upperneck 22.9313 -5.03358 7.17722
head 10.7934 -2.27773 3.43266
rclavicle 8.94531e-016 -2.38542e-015
rhumerus -41.3471 -8.79798 -75.9476
rradius 31.952
rwrist 5.62603
rhand -13.4555 15.1062
rfingers 7.12502
rthumb 12.6541 -14.4904
lclavicle 8.94531e-016 -2.38542e-015
lhumerus -41.4547 4.79829 85.1053
lradius 42.2843
lwrist -1.11254
lhand -19.6323 26.7016
lfingers 7.12502
lthumb 6.69483 56.5758
rfemur -6.9209 4.49 22.5683
rtibia 27.5026
rfoot -11.6008 -2.96703
rtoes 2.73563
lfemur -6.69191 -2.34178 -22.4855
ltibia 25.5486
lfoot -11.5289 2.01472
ltoes 1.15033
242
root 0.103808 17.5999 3.03955 -3.65278 -2.34858 1.29186
lowerback 5.10408 0.0380015 -2.43311
upperback -1.18818 -0.0341745 1.92945
thorax -4.09211 0.0673584 3.36975
lowerneck -18.2512 -4.15332 -9.32431
upperneck 22.9783 -4.90378 6.93881
head 10.8375 -2.23309 3.34617
rclavicle -6.4605e-015 -1.98785e-014
rhumerus -40.9091 -8.71583 -75.8163
rradius 32.1598
rwrist 5.15229
rhand -12.7991 13.7052
rfingers 7.12502
rthumb 13.2868 -15.8513
lclavicle -6.4605e-015 -1.98785e-014
lhumerus -41.2426 4.76854 84.8748
lradius 42.2289
lwrist -1.14282
lhand -19.7038 26.6695
lfingers 7.12502
lthumb 6.62579 56.5458
rfemur -6.91733 4.60085 22.1351
rtibia 27.339
rfoot -11.4949 -2.99771
rtoes 2.45476
lfemur -6.51932 -2.46825 -22.9735
ltibia 25.1961
lfoot -11.4168 2.19999
ltoes 1.03891
243
root 0.108045 17.6061 3.05948 -3.66424 -2.28576 1.51198
lowerback 5.15753 -0.0448982 -2.57046
upperback -1.066 -0.154476 1.94918
thorax -3.98603 0.00752237 3.47771
lowerneck -18.4566 -4.1265 -9.35381
upperneck 22.9092 -4.789 6.77655
head 10.8374 -2.1984 3.30611
rclavicle -1.54058e-015 -7.95139e-016
rhumerus -40.448 -8.71629 -75.6345
rradius 32.4616
rwrist 4.72984
rhand -12.4817 13.6421
rfingers 7.12502
rthumb 13.5928 -15.8941
lclavicle -1.54058e-015 -7.95139e-016
lhumerus -40.9115 4.92499 84.6447
lradius 42.2037
lwrist -1.24839
lhand -19.5392 26.4641
lfingers 7.12502
lthumb 6.78468 56.3354
rfemur -6.69188 4.64411 21.889
rtibia 27.1693
rfoot -11.4958 -3.04256
rtoes 2.93658
lfemur -6.19336 -2.65259 -23.2853
ltibia 24.8544
lfoot -11.3606 2.37328
ltoes 0.8778
244
root 0.110167 17.6136 3.07843 -3.59508 -2.38714 1.467
lowerback 5.07296 -0.103083 -2.48713
upperback -0.932537 -0.221531 2.05635
thorax -3.79423 -0.0318427 3.54592
lowerneck -18.8316 -4.15119 -9.45633
upperneck 23.0384 -4.73886 6.69249
head 10.9538 -2.18875 3.29975
rclavicle 5.41688e-015 1.59028e-014
rhumerus -39.9956 -8.73413 -75.4671
rradius 32.8246
rwrist 4.54549
rhand -12.6268 13.9123
rfingers 7.12502
rthumb 13.4529 -15.6333
lclavicle 5.41688e-015 1.59028e-014
lhumerus -40.6271 5.12445 84.3701
lradius 42.1896
lwrist -1.14415
lhand -19.3739 26.1482
lfingers 7.12502
lthumb 6.94422 56.0143
rfemur -6.58389 4.84492 21.9586
rtibia 26.9911
rfoot -11.4811 -3.12161
rtoes 3.22248
lfemur -5.97494 -2.70505 -23.2843
ltibia 24.5348
lfoot -11.2891 2.56346
ltoes 0.65921
245
root 0.105393 17.6225 3.08974 -3.34182 -2.31488 1.37688
lowerback 5.04676 -0.210607 -2.42812
upperback -1.04869 -0.356742 2.15496
thorax -3.88901 -0.0959765 3.62723
lowerneck -18.9808 -4.10843 -9.38541
upperneck 23.341 -4.64457 6.48801
head 11.0792 -2.16436 3.23144
rclavicle -3.42904e-015 1.03368e-014
rhumerus -39.8207 -8.95927 -75.2254
rradius 33.1055
rwrist 4.34394
rhand -12.6094 13.6887
rfingers 7.12502
rthumb 13.4697 -15.8558
lclavicle -3.42904e-015 1.03368e-014
lhumerus -40.7198 5.28169 83.988
lradius 42.1951
lwrist -0.970327
lhand -19.254 25.498
lfingers 7.12502
lthumb 7.05995 55.3603
rfemur -6.71711 5.064 22.1071
rtibia 26.7952
rfoot -11.367 -3.39047
rtoes 3.67618
lfemur -6.09869 -2.89808 -23.1851
ltibia 24.3082
lfoot -11.1691 2.61622
ltoes 0.858689
